<svg width="30" height="29" viewBox="0 0 30 29" fill="none" xmlns="http://www.w3.org/2000/svg">
<path fill-rule="evenodd" clip-rule="evenodd" d="M29.1535 0.137363C29.317 0.212979 29.5339 0.3746 29.6355 0.496642C30.0252 0.964675 29.9993 0.171544 29.9993 11.664C29.9993 23.4401 30.0377 22.4971 29.5401 22.9657C29.3207 23.1723 28.1481 23.7964 23.6098 26.122C18.1281 28.931 17.9444 29.02 17.6739 28.9978C17.5106 28.9843 17.3432 28.9291 17.2702 28.8647C16.9908 28.6183 16.9858 28.5601 16.9858 25.567V22.7528L13.5418 22.736L10.0979 22.7193L9.82208 22.5848C9.67037 22.5108 9.46263 22.356 9.36045 22.2409C8.96547 21.7955 8.98593 22.0431 8.96729 17.4819L8.95046 13.3471H10.4161H11.8818L11.8984 16.3316C11.9147 19.2454 11.918 19.3199 12.0366 19.4798C12.3076 19.8455 12.3334 19.8488 14.7582 19.8325L16.9564 19.8177L16.9858 13.4631C17.0183 6.39536 16.9855 6.92421 17.4189 6.49576C17.5656 6.35067 18.6124 5.78927 20.9358 4.6097L24.2437 2.93024L18.3726 2.91509C14.0719 2.90401 12.4578 2.9177 12.3386 2.96627C12.2491 3.00278 12.1172 3.11403 12.0455 3.21355C11.9198 3.38806 11.9145 3.44998 11.897 4.94785L11.8788 6.50127L10.4315 6.48572L8.98417 6.47022V3.80072C8.98417 1.21596 8.98804 1.12293 9.10657 0.869443C9.24415 0.57516 9.52118 0.277628 9.7964 0.128484C9.96828 0.0353418 10.6178 0.0276235 19.4185 0.014276L28.8562 0L29.1535 0.137363ZM6.80528 3.68861C7.40249 3.87704 7.84929 4.57917 7.7575 5.18497C7.67848 5.7068 7.48925 5.96046 6.32249 7.10858L5.20197 8.2112L9.55513 8.24021C13.8692 8.269 13.9103 8.27033 14.1435 8.39394C14.6505 8.66281 14.9321 9.09405 14.9791 9.67368C15.0507 10.5566 14.5644 11.2168 13.7299 11.3695C13.5075 11.4102 11.9562 11.4326 9.28114 11.4339L5.17389 11.4357L6.32905 12.551C7.54406 13.7241 7.67045 13.8932 7.7541 14.4586C7.81289 14.8558 7.66365 15.3061 7.37577 15.5997C7.06532 15.9164 6.83283 16.0262 6.39981 16.0606C6.09364 16.0849 5.98466 16.0654 5.69373 15.934C5.39284 15.7981 5.03321 15.4648 2.82061 13.2716C1.1309 11.5968 0.249374 10.6815 0.164787 10.514C-0.0181656 10.1518 -0.0492344 9.76954 0.0738659 9.39396C0.169651 9.10171 0.343283 8.91571 2.78321 6.49227C4.49713 4.78989 5.47449 3.86114 5.63629 3.78117C5.97264 3.61485 6.45145 3.57695 6.80528 3.68861Z" fill="#F3F3F3"/>
</svg>
