<svg width="30" height="35" viewBox="0 0 30 35" fill="none" xmlns="http://www.w3.org/2000/svg">
<path fill-rule="evenodd" clip-rule="evenodd" d="M9.27873 0.115462C8.57626 0.255529 7.9577 0.482538 7.32491 0.832636C6.89839 1.06861 2.52697 4.42309 1.84548 5.03737C1.11734 5.69376 0.554963 6.58126 0.202372 7.63039L0 8.23262V19.6652C0 30.5511 0.00645466 31.1191 0.13467 31.5428C0.586577 33.0358 1.81856 34.2597 3.4021 34.7888L4.03423 35H15H25.9658L26.5526 34.8072C28.1637 34.278 29.4088 33.051 29.8653 31.5428C29.9939 31.1178 30 30.487 30 17.5088C30 4.53057 29.9939 3.89973 29.8653 3.47473C29.4088 1.96659 28.1637 0.739601 26.5526 0.210346L25.9658 0.0175659L17.934 0.00435331C10.421 -0.00796927 9.86193 -0.000781098 9.27873 0.115462ZM25.9483 2.5044C26.7579 2.80952 27.3334 3.51512 27.4756 4.37702C27.5205 4.64942 27.5394 9.62801 27.5265 17.8168C27.5076 29.9013 27.4972 30.8447 27.3807 31.1157C27.1763 31.5914 26.8232 32.0121 26.4186 32.262C25.6547 32.7339 26.2779 32.7109 14.7733 32.6907L4.40098 32.6724L3.99418 32.4943C3.22034 32.1555 2.74643 31.6194 2.55697 30.8683C2.47812 30.5555 2.45941 28.4386 2.4589 19.7679C2.45853 12.6158 2.48391 8.90618 2.53526 8.60914C2.62225 8.10618 2.99699 7.33136 3.33733 6.95052C3.57682 6.68258 7.85802 3.35938 8.53379 2.9168C8.89284 2.68164 9.55702 2.4304 10.0122 2.35742C10.1131 2.34126 13.6449 2.33188 17.8606 2.33661L25.5257 2.34516L25.9483 2.5044ZM19.3523 7.06581C19.1568 7.17774 18.9919 7.34676 18.8939 7.53578C18.7444 7.82413 18.7409 7.91702 18.7424 11.5916C18.7439 15.094 18.7533 15.3712 18.8788 15.6262C18.9529 15.7768 19.0771 15.9527 19.1549 16.0172C19.3501 16.179 19.7962 16.345 20.0356 16.345C20.3926 16.345 20.8554 16.0813 21.0541 15.7648L21.2382 15.4717L21.2181 11.5319C21.1985 7.67454 21.1949 7.58828 21.0468 7.40317C20.7777 7.06683 20.5309 6.94238 20.0804 6.91588C19.7271 6.895 19.6075 6.91965 19.3523 7.06581ZM14.5599 9.50739C14.3256 9.59433 13.9896 9.89124 13.8566 10.1289C13.7729 10.2784 13.7531 10.7993 13.7531 12.8457C13.7531 14.4646 13.7811 15.4471 13.8309 15.5704C13.9422 15.8458 14.3242 16.1927 14.6151 16.2822C15.1859 16.4581 15.9111 16.141 16.1478 15.6123C16.274 15.3306 16.2929 10.5118 16.1691 10.2053C15.9356 9.62712 15.1524 9.2875 14.5599 9.50739ZM9.49885 10.4659C9.25995 10.5549 8.99831 10.7857 8.86467 11.0255C8.69802 11.3245 8.71856 15.3766 8.88836 15.7106C9.03139 15.992 9.44897 16.2665 9.81924 16.3225C10.3881 16.4087 11.021 16.013 11.1826 15.47C11.2265 15.3223 11.2578 14.4109 11.2571 13.2986C11.2561 11.581 11.2419 11.3532 11.1205 11.1079C10.8219 10.5041 10.1312 10.2307 9.49885 10.4659ZM7.10912 19.9662C6.38171 20.2745 6.14655 21.0555 6.592 21.6837C6.95589 22.1969 6.37276 22.164 15.1051 22.164C21.6269 22.164 22.9672 22.1481 23.1711 22.0685C23.6619 21.8771 23.9538 21.3093 23.8434 20.7603C23.7778 20.4338 23.3476 19.9951 23.0063 19.9066C22.8329 19.8616 20.0339 19.8375 15.0733 19.8383C7.76993 19.8393 7.39423 19.8453 7.10912 19.9662ZM7.07252 25.7341C6.38464 25.8654 5.96186 26.5962 6.19394 27.2526C6.30117 27.5557 6.69154 27.8839 7.05792 27.9789C7.43853 28.0775 22.5574 28.0785 22.9378 27.98C23.6806 27.7875 24.0705 27.0454 23.7753 26.3859C23.6632 26.1355 23.2867 25.8111 23.0445 25.7561C22.8106 25.703 7.34699 25.6817 7.07252 25.7341Z" fill="#F3F3F3"/>
</svg>
