<svg width="28" height="34" viewBox="0 0 28 34" fill="none" xmlns="http://www.w3.org/2000/svg">
<path fill-rule="evenodd" clip-rule="evenodd" d="M0 17V34H14H28V17V0H14H0V17ZM26.0095 17V32.0078H14H1.99052V17V1.99219H14H26.0095V17ZM4.01143 4.06738C3.99391 4.11307 3.98741 5.46523 3.9969 7.07227L4.01422 9.99414H7H9.98578L10.003 6.98926L10.0203 3.98438H7.03178C4.70214 3.98438 4.03625 4.0027 4.01143 4.06738ZM14 4.98007V5.97656H19.0113H24.0225L24.0042 4.99707L23.9858 4.01758L18.9929 4.00058L14 3.98351V4.98007ZM8.01364 6.98926L8.03195 7.96875H7.03497H6.03791V6.97086V5.97304L7.01659 5.99137L7.99526 6.00977L8.01364 6.98926ZM14.0293 8.05455C14.011 8.10216 14.0044 8.55811 14.0146 9.06764L14.0332 9.99414H19.0095H23.9858V8.99805V8.00195L19.0241 7.98495C14.9933 7.97107 14.0563 7.98416 14.0293 8.05455ZM3.98104 15.0078V17.9961H7H10.019V15.0078V12.0195H7H3.98104V15.0078ZM14 13.016V14.0126L18.9929 13.9955L23.9858 13.9785L24.0042 12.999L24.0225 12.0195H19.0113H14V13.016ZM8.02844 15.0078V16.0039H7.03318H6.03791V15.0078V14.0117H7.03318H8.02844V15.0078ZM14 17V17.9961H19.0095H24.019V17V16.0039H19.0095H14V17ZM4.01143 20.0713C3.99391 20.117 3.98741 21.4691 3.9969 23.0762L4.01422 25.998H7H9.98578L10.003 22.9932L10.0203 19.9883H7.03178C4.70214 19.9883 4.03625 20.0066 4.01143 20.0713ZM14 20.984V21.9805H19.0113H24.0225L24.0042 21.001L23.9858 20.0215L18.9929 20.0045L14 19.9874V20.984ZM8.01364 22.9932L8.03195 23.9727H7.03497H6.03791V22.9748V21.9769L7.01659 21.9953L7.99526 22.0137L8.01364 22.9932ZM14.0293 24.0585C14.011 24.1061 14.0044 24.562 14.0146 25.0715L14.0332 25.998H19.0095H23.9858V25.002V24.0059L19.0241 23.9889C14.9933 23.975 14.0563 23.9881 14.0293 24.0585ZM3.99584 29.0029L4.01422 29.9824H14H23.9858L24.0042 29.0029L24.0225 28.0234H14H3.97753L3.99584 29.0029Z" fill="#f3f3f3"/>
</svg>
