<svg width="73" height="65" viewBox="0 0 73 65" fill="none" xmlns="http://www.w3.org/2000/svg">
<path fill-rule="evenodd" clip-rule="evenodd" d="M30.0577 0.269439C29.1871 0.755938 29.1065 1.00384 29.0288 3.43233C28.9611 5.54502 28.9428 5.6576 28.5703 6.23823C28.0805 7.00193 27.6732 7.26507 26.1206 7.82116C25.4344 8.06699 24.334 8.47318 23.6754 8.72392C22.3256 9.23753 21.2848 9.32159 20.5338 8.97737C20.2859 8.86362 19.3171 8.07538 18.3809 7.22556C17.0669 6.03281 16.5611 5.65618 16.1621 5.57368C15.0253 5.33869 14.8769 5.43643 11.0324 8.94961C9.06522 10.7473 7.36482 12.375 7.25381 12.5667C6.98135 13.037 6.99839 13.9602 7.28663 14.352C7.41582 14.5276 8.19713 15.3104 9.02295 16.0915C11.2364 18.1854 11.4251 18.8793 10.3865 21.1087C10.0511 21.8289 9.60083 22.8088 9.386 23.2864C8.95914 24.2354 8.11556 25.208 7.423 25.5499C7.07771 25.7204 6.45193 25.7838 4.55501 25.8405C1.91594 25.9195 1.74731 25.9656 1.07321 26.7931C0.791872 27.1383 0.782715 27.3023 0.782715 32.0142C0.782715 36.6324 0.796803 36.9002 1.06137 37.3011C1.57558 38.0805 2.18642 38.2345 4.76266 38.2345C6.0245 38.2345 7.20957 38.2956 7.43005 38.3719C8.2501 38.6558 8.99323 39.5801 9.4477 40.8813C9.54702 41.1654 9.92908 42.0369 10.2969 42.818C11.5264 45.4288 11.4687 45.7002 9.24202 47.7889C7.10687 49.7917 7.05179 49.8658 7.05179 50.7381V51.4576L10.8162 54.9163C13.4152 57.3043 14.7264 58.4191 15.0517 58.5174C16.0056 58.806 16.4136 58.6063 18.2634 56.9452C19.2056 56.0994 20.2043 55.3199 20.483 55.2133C21.6041 54.784 22.5081 54.9428 25.5772 56.1082C27.5669 56.8636 28.1433 57.2396 28.6353 58.1026C29.0135 58.7664 29.0288 58.8658 29.0288 60.6742C29.0288 62.8169 29.2167 63.4061 30.0472 63.8664C30.4854 64.1092 30.7775 64.1217 36.0022 64.1217H41.4965L41.9564 63.821C42.7179 63.3233 42.7994 63.0415 42.8602 60.7002C42.9388 57.6619 43.1259 57.3824 45.7973 56.3087C46.6785 55.9545 47.4169 55.6648 47.438 55.6648C47.4593 55.6648 47.5758 55.4888 47.6971 55.2739C48.0139 54.7123 47.8422 54.1054 47.1158 53.2198C46.4662 52.4278 45.523 51.919 44.7106 51.9221C43.5806 51.9265 41.3367 52.7857 40.534 53.5213C39.56 54.414 39.4072 54.8529 39.3157 57.0205C39.2311 59.0236 39.1127 59.4551 38.5103 59.9547C38.019 60.3622 37.0774 60.5711 35.7326 60.5711C34.0729 60.5711 33.3419 60.2758 32.8677 59.414C32.5821 58.8951 32.5507 58.6509 32.5507 56.9539C32.5507 55.1879 32.528 55.0281 32.1874 54.4018C31.6357 53.3871 30.6448 52.7609 28.6766 52.183C28.1342 52.0238 26.7395 51.4783 25.5772 50.9709C23.531 50.0777 23.4305 50.0485 22.4075 50.0526C20.9891 50.0583 20.4544 50.3302 18.6038 51.9868C16.8796 53.5303 16.4231 53.7839 15.5346 53.6921C14.9703 53.6337 14.7801 53.5121 13.646 52.4833C12.9525 51.8543 12.2944 51.1826 12.1837 50.9909C11.6596 50.0828 12.1378 49.2058 14.2545 47.1916C15.7995 45.7214 15.9099 45.5814 16.0652 44.8962C16.2882 43.9119 16.1064 43.195 15.1613 41.329C14.7464 40.51 14.2066 39.3189 13.9617 38.6821C13.2163 36.7441 12.6318 36.0336 11.3486 35.505C10.7562 35.2611 10.3038 35.2029 8.50297 35.1387C6.38346 35.0632 6.35627 35.0584 5.82629 34.6703C4.98525 34.0544 4.79816 33.5923 4.79802 32.1297C4.7976 30.4294 5.12627 29.7149 6.1358 29.2216C6.45292 29.0667 7.13998 28.9971 8.8832 28.9432C11.1078 28.8747 11.2367 28.8559 11.8828 28.509C12.8306 27.9999 13.2675 27.3737 13.9458 25.5523C14.2704 24.6807 14.9283 23.2412 15.4077 22.3535C16.242 20.8088 16.2793 20.698 16.2793 19.7713C16.2793 18.4302 15.9327 17.8417 14.1378 16.135C13.3409 15.3775 12.6251 14.6036 12.547 14.4155C12.1788 13.5276 12.4902 12.717 13.6152 11.6361C14.8681 10.4322 16.0595 10.0695 17.256 10.5278C17.5171 10.6277 18.4184 11.3169 19.259 12.0593C21.1368 13.7178 21.4635 13.8888 22.7597 13.8926C23.6724 13.8952 23.8753 13.8393 25.4844 13.1419C26.4406 12.7275 27.6465 12.2563 28.1642 12.0951C30.3246 11.4216 31.5912 10.6487 32.1643 9.65431C32.4311 9.19131 32.4834 8.84167 32.553 7.05358C32.6459 4.66679 32.8295 4.15666 33.7689 3.6739C34.9383 3.07288 37.3223 3.16403 38.2994 3.84717C39.0973 4.40494 39.3062 5.01255 39.3098 6.78683C39.3141 8.95542 39.5526 9.67768 40.5724 10.6103C41.2952 11.2713 41.4969 11.3722 43.187 11.919C44.1943 12.2447 45.6783 12.7888 46.485 13.1279C47.6951 13.6366 48.1324 13.755 48.987 13.8053C50.5039 13.8945 51.0638 13.6561 52.6959 12.2253C54.5685 10.5837 55.5467 10.0969 56.6063 10.2791C57.341 10.4054 59.0821 11.9703 59.3804 12.7725C59.855 14.0493 59.6241 14.5904 57.905 16.2304C56.0789 17.9726 55.8715 18.3396 55.8684 19.8358C55.866 20.9812 55.8776 21.0203 56.6664 22.5614C57.1065 23.4213 57.6941 24.7543 57.9719 25.5235C59.0541 28.5191 59.6349 28.9383 62.7021 28.9383C63.7163 28.9383 64.8201 29.0016 65.155 29.0788C65.9054 29.2521 66.7545 29.8748 67.0129 30.4416C67.2779 31.0226 67.2749 33.3499 67.0088 33.8188C66.4385 34.8233 65.5346 35.1358 63.1996 35.1358C61.023 35.1358 60.2954 35.3194 59.507 36.0676C58.6051 36.9236 58.2907 37.604 58.3568 38.5562C58.4034 39.2261 58.4938 39.4533 58.931 39.9992C59.6138 40.8516 60.3809 41.3332 61.0558 41.3332C61.7564 41.3332 62.1869 41.0519 62.8446 40.1643C63.5243 39.247 64.3587 38.5806 65.0735 38.3844C65.3828 38.2994 66.559 38.2332 67.7866 38.2316C70.4607 38.2282 70.998 38.0684 71.4442 37.1441C71.7104 36.5924 71.7228 36.3204 71.6847 31.8559C71.6459 27.334 71.6329 27.1352 71.3539 26.793C70.6641 25.9468 70.5242 25.9105 67.6543 25.8344C66.172 25.795 64.8608 25.7001 64.6513 25.6171C64.1237 25.4077 63.2851 24.7055 63.0364 24.2647C62.9201 24.0586 62.4138 22.9849 61.911 21.8784C60.4837 18.7371 60.6005 18.2059 63.27 15.6979C64.4558 14.5837 64.8094 14.1688 64.8842 13.8035C65.0885 12.8056 64.9793 12.6656 61.4475 9.3935C57.4784 5.71609 57.28 5.56877 56.2988 5.56877C55.4202 5.56877 55.2511 5.6669 53.5975 7.13699C52.0223 8.53735 51.1069 8.97401 49.7378 8.9784C49.0137 8.9806 48.6157 8.89719 47.836 8.57957C47.2936 8.35853 46.3699 7.99636 45.7831 7.77455C43.6113 6.95377 42.973 5.92887 42.8812 3.11562C42.8172 1.15968 42.6589 0.694093 41.9137 0.272021C41.4852 0.0292875 41.196 0.0168927 35.9856 0.0174091C30.8047 0.0177964 30.4836 0.0314825 30.0577 0.269439ZM32.4425 15.511C31.4365 15.705 30.2609 16.3758 29.1806 17.3725C28.3449 18.1435 28.1717 18.3715 28.2497 18.5971C28.394 19.0135 28.8521 19.2255 29.9445 19.3813C31.5881 19.6157 32.1247 19.9409 34.4707 22.1237C36.1156 23.6542 36.6479 24.2342 36.8444 24.7106C37.6642 26.6976 35.824 29.7073 33.0238 30.9596C32.0412 31.3991 31.7981 31.4547 30.8602 31.4554C29.4407 31.4563 29.0078 31.2065 26.686 29.0457C24.6745 27.174 24.3233 26.6774 23.825 25.0004C23.4722 23.8133 23.2135 23.3864 22.8463 23.3864C22.4858 23.3864 20.4339 25.3889 20.0423 26.1229C19.562 27.0232 19.3875 28.1289 19.5732 29.0952C19.8907 30.7473 20.0693 30.9546 25.3509 35.7959C29.7712 39.8478 30.3179 40.3057 31.2094 40.7022C32.1231 41.1087 32.2874 41.1389 33.5339 41.131C34.7185 41.1235 35.0058 41.0729 35.9939 40.6972C36.9181 40.3459 37.2242 40.2858 37.7549 40.3521C39.361 40.5523 39.0963 40.3332 52.1328 52.2534C65.4995 64.4755 65.0189 64.0848 66.6993 64.0953C67.9149 64.1028 68.5501 63.7582 70.3139 62.1342C72.0887 60.5 72.4757 59.8733 72.4757 58.6344C72.4757 57.0541 72.9892 57.5878 59.8082 45.4648C48.3812 34.955 47.781 34.3799 47.2925 33.4723C46.6549 32.2873 46.6253 31.627 47.155 30.3938C47.4636 29.6753 47.5327 29.3001 47.5424 28.2904C47.5534 27.1434 47.5222 27.0016 47.0737 26.16C46.6439 25.354 46.1219 24.8237 42.143 21.1506C37.4006 16.7729 36.6343 16.1487 35.5304 15.7642C34.6833 15.4693 33.2634 15.3529 32.4425 15.511Z" fill="white"/>
</svg>
